<?xml version="1.0" encoding="utf-8" standalone="no"?>
<!DOCTYPE svg PUBLIC "-//W3C//DTD SVG 1.1//EN"
  "http://www.w3.org/Graphics/SVG/1.1/DTD/svg11.dtd">
<svg xmlns:xlink="http://www.w3.org/1999/xlink" width="572.4pt" height="168.118125pt" viewBox="0 0 572.4 168.118125" xmlns="http://www.w3.org/2000/svg" version="1.1">
 <metadata>
  <rdf:RDF xmlns:dc="http://purl.org/dc/elements/1.1/" xmlns:cc="http://creativecommons.org/ns#" xmlns:rdf="http://www.w3.org/1999/02/22-rdf-syntax-ns#">
   <cc:Work>
    <dc:type rdf:resource="http://purl.org/dc/dcmitype/StillImage"/>
    <dc:date>2026-07-18T13:15:37.494250</dc:date>
    <dc:format>image/svg+xml</dc:format>
    <dc:creator>
     <cc:Agent>
      <dc:title>Matplotlib v3.10.9, https://matplotlib.org/</dc:title>
     </cc:Agent>
    </dc:creator>
   </cc:Work>
  </rdf:RDF>
 </metadata>
 <defs>
  <style type="text/css">*{stroke-linejoin: round; stroke-linecap: butt}</style>
 </defs>
 <g id="figure_1">
  <g id="patch_1">
   <path d="M 0 168.118125 
L 572.4 168.118125 
L 572.4 0 
L 0 0 
z
" style="fill: #ffffff"/>
  </g>
  <g id="axes_1">
   <g id="text_1">
    <g id="patch_2">
     <path d="M 17.313047 104.162297 
L 86.366953 104.162297 
Q 89.516953 104.162297 89.516953 101.012297 
L 89.516953 82.223953 
Q 89.516953 79.073953 86.366953 79.073953 
L 17.313047 79.073953 
Q 14.163047 79.073953 14.163047 82.223953 
L 14.163047 101.012297 
Q 14.163047 104.162297 17.313047 104.162297 
z
" style="fill: #f7f7f2; stroke: #555555; stroke-linejoin: miter"/>
    </g>
    <!-- Raw-luminance -->
    <g transform="translate(17.313047 89.062547) scale(0.09 -0.09)">
     <defs>
      <path id="DejaVuSans-52" d="M 2841 2188 
Q 3044 2119 3236 1894 
Q 3428 1669 3622 1275 
L 4263 0 
L 3584 0 
L 2988 1197 
Q 2756 1666 2539 1819 
Q 2322 1972 1947 1972 
L 1259 1972 
L 1259 0 
L 628 0 
L 628 4666 
L 2053 4666 
Q 2853 4666 3247 4331 
Q 3641 3997 3641 3322 
Q 3641 2881 3436 2590 
Q 3231 2300 2841 2188 
z
M 1259 4147 
L 1259 2491 
L 2053 2491 
Q 2509 2491 2742 2702 
Q 2975 2913 2975 3322 
Q 2975 3731 2742 3939 
Q 2509 4147 2053 4147 
L 1259 4147 
z
" transform="scale(0.015625)"/>
      <path id="DejaVuSans-61" d="M 2194 1759 
Q 1497 1759 1228 1600 
Q 959 1441 959 1056 
Q 959 750 1161 570 
Q 1363 391 1709 391 
Q 2188 391 2477 730 
Q 2766 1069 2766 1631 
L 2766 1759 
L 2194 1759 
z
M 3341 1997 
L 3341 0 
L 2766 0 
L 2766 531 
Q 2569 213 2275 61 
Q 1981 -91 1556 -91 
Q 1019 -91 701 211 
Q 384 513 384 1019 
Q 384 1609 779 1909 
Q 1175 2209 1959 2209 
L 2766 2209 
L 2766 2266 
Q 2766 2663 2505 2880 
Q 2244 3097 1772 3097 
Q 1472 3097 1187 3025 
Q 903 2953 641 2809 
L 641 3341 
Q 956 3463 1253 3523 
Q 1550 3584 1831 3584 
Q 2591 3584 2966 3190 
Q 3341 2797 3341 1997 
z
" transform="scale(0.015625)"/>
      <path id="DejaVuSans-77" d="M 269 3500 
L 844 3500 
L 1563 769 
L 2278 3500 
L 2956 3500 
L 3675 769 
L 4391 3500 
L 4966 3500 
L 4050 0 
L 3372 0 
L 2619 2869 
L 1863 0 
L 1184 0 
L 269 3500 
z
" transform="scale(0.015625)"/>
      <path id="DejaVuSans-2d" d="M 313 2009 
L 1997 2009 
L 1997 1497 
L 313 1497 
L 313 2009 
z
" transform="scale(0.015625)"/>
      <path id="DejaVuSans-6c" d="M 603 4863 
L 1178 4863 
L 1178 0 
L 603 0 
L 603 4863 
z
" transform="scale(0.015625)"/>
      <path id="DejaVuSans-75" d="M 544 1381 
L 544 3500 
L 1119 3500 
L 1119 1403 
Q 1119 906 1312 657 
Q 1506 409 1894 409 
Q 2359 409 2629 706 
Q 2900 1003 2900 1516 
L 2900 3500 
L 3475 3500 
L 3475 0 
L 2900 0 
L 2900 538 
Q 2691 219 2414 64 
Q 2138 -91 1772 -91 
Q 1169 -91 856 284 
Q 544 659 544 1381 
z
M 1991 3584 
L 1991 3584 
z
" transform="scale(0.015625)"/>
      <path id="DejaVuSans-6d" d="M 3328 2828 
Q 3544 3216 3844 3400 
Q 4144 3584 4550 3584 
Q 5097 3584 5394 3201 
Q 5691 2819 5691 2113 
L 5691 0 
L 5113 0 
L 5113 2094 
Q 5113 2597 4934 2840 
Q 4756 3084 4391 3084 
Q 3944 3084 3684 2787 
Q 3425 2491 3425 1978 
L 3425 0 
L 2847 0 
L 2847 2094 
Q 2847 2600 2669 2842 
Q 2491 3084 2119 3084 
Q 1678 3084 1418 2786 
Q 1159 2488 1159 1978 
L 1159 0 
L 581 0 
L 581 3500 
L 1159 3500 
L 1159 2956 
Q 1356 3278 1631 3431 
Q 1906 3584 2284 3584 
Q 2666 3584 2933 3390 
Q 3200 3197 3328 2828 
z
" transform="scale(0.015625)"/>
      <path id="DejaVuSans-69" d="M 603 3500 
L 1178 3500 
L 1178 0 
L 603 0 
L 603 3500 
z
M 603 4863 
L 1178 4863 
L 1178 4134 
L 603 4134 
L 603 4863 
z
" transform="scale(0.015625)"/>
      <path id="DejaVuSans-6e" d="M 3513 2113 
L 3513 0 
L 2938 0 
L 2938 2094 
Q 2938 2591 2744 2837 
Q 2550 3084 2163 3084 
Q 1697 3084 1428 2787 
Q 1159 2491 1159 1978 
L 1159 0 
L 581 0 
L 581 3500 
L 1159 3500 
L 1159 2956 
Q 1366 3272 1645 3428 
Q 1925 3584 2291 3584 
Q 2894 3584 3203 3211 
Q 3513 2838 3513 2113 
z
" transform="scale(0.015625)"/>
      <path id="DejaVuSans-63" d="M 3122 3366 
L 3122 2828 
Q 2878 2963 2633 3030 
Q 2388 3097 2138 3097 
Q 1578 3097 1268 2742 
Q 959 2388 959 1747 
Q 959 1106 1268 751 
Q 1578 397 2138 397 
Q 2388 397 2633 464 
Q 2878 531 3122 666 
L 3122 134 
Q 2881 22 2623 -34 
Q 2366 -91 2075 -91 
Q 1284 -91 818 406 
Q 353 903 353 1747 
Q 353 2603 823 3093 
Q 1294 3584 2113 3584 
Q 2378 3584 2631 3529 
Q 2884 3475 3122 3366 
z
" transform="scale(0.015625)"/>
      <path id="DejaVuSans-65" d="M 3597 1894 
L 3597 1613 
L 953 1613 
Q 991 1019 1311 708 
Q 1631 397 2203 397 
Q 2534 397 2845 478 
Q 3156 559 3463 722 
L 3463 178 
Q 3153 47 2828 -22 
Q 2503 -91 2169 -91 
Q 1331 -91 842 396 
Q 353 884 353 1716 
Q 353 2575 817 3079 
Q 1281 3584 2069 3584 
Q 2775 3584 3186 3129 
Q 3597 2675 3597 1894 
z
M 3022 2063 
Q 3016 2534 2758 2815 
Q 2500 3097 2075 3097 
Q 1594 3097 1305 2825 
Q 1016 2553 972 2059 
L 3022 2063 
z
" transform="scale(0.015625)"/>
     </defs>
     <use xlink:href="#DejaVuSans-52"/>
     <use xlink:href="#DejaVuSans-61" transform="translate(67.232422 0)"/>
     <use xlink:href="#DejaVuSans-77" transform="translate(128.511719 0)"/>
     <use xlink:href="#DejaVuSans-2d" transform="translate(210.298828 0)"/>
     <use xlink:href="#DejaVuSans-6c" transform="translate(246.382812 0)"/>
     <use xlink:href="#DejaVuSans-75" transform="translate(274.166016 0)"/>
     <use xlink:href="#DejaVuSans-6d" transform="translate(337.544922 0)"/>
     <use xlink:href="#DejaVuSans-69" transform="translate(434.957031 0)"/>
     <use xlink:href="#DejaVuSans-6e" transform="translate(462.740234 0)"/>
     <use xlink:href="#DejaVuSans-61" transform="translate(526.119141 0)"/>
     <use xlink:href="#DejaVuSans-6e" transform="translate(587.398438 0)"/>
     <use xlink:href="#DejaVuSans-63" transform="translate(650.777344 0)"/>
     <use xlink:href="#DejaVuSans-65" transform="translate(705.757812 0)"/>
    </g>
    <!-- keyframe -->
    <g transform="translate(30.621094 99.140578) scale(0.09 -0.09)">
     <defs>
      <path id="DejaVuSans-6b" d="M 581 4863 
L 1159 4863 
L 1159 1991 
L 2875 3500 
L 3609 3500 
L 1753 1863 
L 3688 0 
L 2938 0 
L 1159 1709 
L 1159 0 
L 581 0 
L 581 4863 
z
" transform="scale(0.015625)"/>
      <path id="DejaVuSans-79" d="M 2059 -325 
Q 1816 -950 1584 -1140 
Q 1353 -1331 966 -1331 
L 506 -1331 
L 506 -850 
L 844 -850 
Q 1081 -850 1212 -737 
Q 1344 -625 1503 -206 
L 1606 56 
L 191 3500 
L 800 3500 
L 1894 763 
L 2988 3500 
L 3597 3500 
L 2059 -325 
z
" transform="scale(0.015625)"/>
      <path id="DejaVuSans-66" d="M 2375 4863 
L 2375 4384 
L 1825 4384 
Q 1516 4384 1395 4259 
Q 1275 4134 1275 3809 
L 1275 3500 
L 2222 3500 
L 2222 3053 
L 1275 3053 
L 1275 0 
L 697 0 
L 697 3053 
L 147 3053 
L 147 3500 
L 697 3500 
L 697 3744 
Q 697 4328 969 4595 
Q 1241 4863 1831 4863 
L 2375 4863 
z
" transform="scale(0.015625)"/>
      <path id="DejaVuSans-72" d="M 2631 2963 
Q 2534 3019 2420 3045 
Q 2306 3072 2169 3072 
Q 1681 3072 1420 2755 
Q 1159 2438 1159 1844 
L 1159 0 
L 581 0 
L 581 3500 
L 1159 3500 
L 1159 2956 
Q 1341 3275 1631 3429 
Q 1922 3584 2338 3584 
Q 2397 3584 2469 3576 
Q 2541 3569 2628 3553 
L 2631 2963 
z
" transform="scale(0.015625)"/>
     </defs>
     <use xlink:href="#DejaVuSans-6b"/>
     <use xlink:href="#DejaVuSans-65" transform="translate(54.285156 0)"/>
     <use xlink:href="#DejaVuSans-79" transform="translate(115.808594 0)"/>
     <use xlink:href="#DejaVuSans-66" transform="translate(174.988281 0)"/>
     <use xlink:href="#DejaVuSans-72" transform="translate(210.193359 0)"/>
     <use xlink:href="#DejaVuSans-61" transform="translate(251.306641 0)"/>
     <use xlink:href="#DejaVuSans-6d" transform="translate(312.585938 0)"/>
     <use xlink:href="#DejaVuSans-65" transform="translate(409.998047 0)"/>
    </g>
   </g>
   <g id="patch_3">
    <path d="M 95.688501 91.618125 
Q 110.42816 91.618125 123.937982 91.618125 
" style="fill: none; stroke: #333333; stroke-width: 1.1; stroke-linecap: round"/>
    <path d="M 119.937982 89.618125 
L 123.937982 91.618125 
L 119.937982 93.618125 
" style="fill: none; stroke: #333333; stroke-width: 1.1; stroke-linecap: round"/>
   </g>
   <g id="text_2">
    <g id="patch_4">
     <path d="M 141.141797 104.162297 
L 196.898203 104.162297 
Q 200.048203 104.162297 200.048203 101.012297 
L 200.048203 82.223953 
Q 200.048203 79.073953 196.898203 79.073953 
L 141.141797 79.073953 
Q 137.991797 79.073953 137.991797 82.223953 
L 137.991797 101.012297 
Q 137.991797 104.162297 141.141797 104.162297 
z
" style="fill: #f7f7f2; stroke: #555555; stroke-linejoin: miter"/>
    </g>
    <!-- Frozen DINO -->
    <g transform="translate(141.141797 89.062547) scale(0.09 -0.09)">
     <defs>
      <path id="DejaVuSans-46" d="M 628 4666 
L 3309 4666 
L 3309 4134 
L 1259 4134 
L 1259 2759 
L 3109 2759 
L 3109 2228 
L 1259 2228 
L 1259 0 
L 628 0 
L 628 4666 
z
" transform="scale(0.015625)"/>
      <path id="DejaVuSans-6f" d="M 1959 3097 
Q 1497 3097 1228 2736 
Q 959 2375 959 1747 
Q 959 1119 1226 758 
Q 1494 397 1959 397 
Q 2419 397 2687 759 
Q 2956 1122 2956 1747 
Q 2956 2369 2687 2733 
Q 2419 3097 1959 3097 
z
M 1959 3584 
Q 2709 3584 3137 3096 
Q 3566 2609 3566 1747 
Q 3566 888 3137 398 
Q 2709 -91 1959 -91 
Q 1206 -91 779 398 
Q 353 888 353 1747 
Q 353 2609 779 3096 
Q 1206 3584 1959 3584 
z
" transform="scale(0.015625)"/>
      <path id="DejaVuSans-7a" d="M 353 3500 
L 3084 3500 
L 3084 2975 
L 922 459 
L 3084 459 
L 3084 0 
L 275 0 
L 275 525 
L 2438 3041 
L 353 3041 
L 353 3500 
z
" transform="scale(0.015625)"/>
      <path id="DejaVuSans-20" transform="scale(0.015625)"/>
      <path id="DejaVuSans-44" d="M 1259 4147 
L 1259 519 
L 2022 519 
Q 2988 519 3436 956 
Q 3884 1394 3884 2338 
Q 3884 3275 3436 3711 
Q 2988 4147 2022 4147 
L 1259 4147 
z
M 628 4666 
L 1925 4666 
Q 3281 4666 3915 4102 
Q 4550 3538 4550 2338 
Q 4550 1131 3912 565 
Q 3275 0 1925 0 
L 628 0 
L 628 4666 
z
" transform="scale(0.015625)"/>
      <path id="DejaVuSans-49" d="M 628 4666 
L 1259 4666 
L 1259 0 
L 628 0 
L 628 4666 
z
" transform="scale(0.015625)"/>
      <path id="DejaVuSans-4e" d="M 628 4666 
L 1478 4666 
L 3547 763 
L 3547 4666 
L 4159 4666 
L 4159 0 
L 3309 0 
L 1241 3903 
L 1241 0 
L 628 0 
L 628 4666 
z
" transform="scale(0.015625)"/>
      <path id="DejaVuSans-4f" d="M 2522 4238 
Q 1834 4238 1429 3725 
Q 1025 3213 1025 2328 
Q 1025 1447 1429 934 
Q 1834 422 2522 422 
Q 3209 422 3611 934 
Q 4013 1447 4013 2328 
Q 4013 3213 3611 3725 
Q 3209 4238 2522 4238 
z
M 2522 4750 
Q 3503 4750 4090 4092 
Q 4678 3434 4678 2328 
Q 4678 1225 4090 567 
Q 3503 -91 2522 -91 
Q 1538 -91 948 565 
Q 359 1222 359 2328 
Q 359 3434 948 4092 
Q 1538 4750 2522 4750 
z
" transform="scale(0.015625)"/>
     </defs>
     <use xlink:href="#DejaVuSans-46"/>
     <use xlink:href="#DejaVuSans-72" transform="translate(50.269531 0)"/>
     <use xlink:href="#DejaVuSans-6f" transform="translate(89.132812 0)"/>
     <use xlink:href="#DejaVuSans-7a" transform="translate(150.314453 0)"/>
     <use xlink:href="#DejaVuSans-65" transform="translate(202.804688 0)"/>
     <use xlink:href="#DejaVuSans-6e" transform="translate(264.328125 0)"/>
     <use xlink:href="#DejaVuSans-20" transform="translate(327.707031 0)"/>
     <use xlink:href="#DejaVuSans-44" transform="translate(359.494141 0)"/>
     <use xlink:href="#DejaVuSans-49" transform="translate(436.496094 0)"/>
     <use xlink:href="#DejaVuSans-4e" transform="translate(465.988281 0)"/>
     <use xlink:href="#DejaVuSans-4f" transform="translate(540.792969 0)"/>
    </g>
    <!-- embedding -->
    <g transform="translate(143.569688 99.140578) scale(0.09 -0.09)">
     <defs>
      <path id="DejaVuSans-62" d="M 3116 1747 
Q 3116 2381 2855 2742 
Q 2594 3103 2138 3103 
Q 1681 3103 1420 2742 
Q 1159 2381 1159 1747 
Q 1159 1113 1420 752 
Q 1681 391 2138 391 
Q 2594 391 2855 752 
Q 3116 1113 3116 1747 
z
M 1159 2969 
Q 1341 3281 1617 3432 
Q 1894 3584 2278 3584 
Q 2916 3584 3314 3078 
Q 3713 2572 3713 1747 
Q 3713 922 3314 415 
Q 2916 -91 2278 -91 
Q 1894 -91 1617 61 
Q 1341 213 1159 525 
L 1159 0 
L 581 0 
L 581 4863 
L 1159 4863 
L 1159 2969 
z
" transform="scale(0.015625)"/>
      <path id="DejaVuSans-64" d="M 2906 2969 
L 2906 4863 
L 3481 4863 
L 3481 0 
L 2906 0 
L 2906 525 
Q 2725 213 2448 61 
Q 2172 -91 1784 -91 
Q 1150 -91 751 415 
Q 353 922 353 1747 
Q 353 2572 751 3078 
Q 1150 3584 1784 3584 
Q 2172 3584 2448 3432 
Q 2725 3281 2906 2969 
z
M 947 1747 
Q 947 1113 1208 752 
Q 1469 391 1925 391 
Q 2381 391 2643 752 
Q 2906 1113 2906 1747 
Q 2906 2381 2643 2742 
Q 2381 3103 1925 3103 
Q 1469 3103 1208 2742 
Q 947 2381 947 1747 
z
" transform="scale(0.015625)"/>
      <path id="DejaVuSans-67" d="M 2906 1791 
Q 2906 2416 2648 2759 
Q 2391 3103 1925 3103 
Q 1463 3103 1205 2759 
Q 947 2416 947 1791 
Q 947 1169 1205 825 
Q 1463 481 1925 481 
Q 2391 481 2648 825 
Q 2906 1169 2906 1791 
z
M 3481 434 
Q 3481 -459 3084 -895 
Q 2688 -1331 1869 -1331 
Q 1566 -1331 1297 -1286 
Q 1028 -1241 775 -1147 
L 775 -588 
Q 1028 -725 1275 -790 
Q 1522 -856 1778 -856 
Q 2344 -856 2625 -561 
Q 2906 -266 2906 331 
L 2906 616 
Q 2728 306 2450 153 
Q 2172 0 1784 0 
Q 1141 0 747 490 
Q 353 981 353 1791 
Q 353 2603 747 3093 
Q 1141 3584 1784 3584 
Q 2172 3584 2450 3431 
Q 2728 3278 2906 2969 
L 2906 3500 
L 3481 3500 
L 3481 434 
z
" transform="scale(0.015625)"/>
     </defs>
     <use xlink:href="#DejaVuSans-65"/>
     <use xlink:href="#DejaVuSans-6d" transform="translate(61.523438 0)"/>
     <use xlink:href="#DejaVuSans-62" transform="translate(158.935547 0)"/>
     <use xlink:href="#DejaVuSans-65" transform="translate(222.412109 0)"/>
     <use xlink:href="#DejaVuSans-64" transform="translate(283.935547 0)"/>
     <use xlink:href="#DejaVuSans-64" transform="translate(347.412109 0)"/>
     <use xlink:href="#DejaVuSans-69" transform="translate(410.888672 0)"/>
     <use xlink:href="#DejaVuSans-6e" transform="translate(438.671875 0)"/>
     <use xlink:href="#DejaVuSans-67" transform="translate(502.050781 0)"/>
    </g>
   </g>
   <g id="patch_5">
    <path d="M 212.868501 91.618125 
Q 227.60816 91.618125 241.117982 91.618125 
" style="fill: none; stroke: #333333; stroke-width: 1.1; stroke-linecap: round"/>
    <path d="M 237.117982 89.618125 
L 241.117982 91.618125 
L 237.117982 93.618125 
" style="fill: none; stroke: #333333; stroke-width: 1.1; stroke-linecap: round"/>
   </g>
   <g id="text_3">
    <g id="patch_6">
     <path d="M 242.548594 104.162297 
L 329.851406 104.162297 
Q 333.001406 104.162297 333.001406 101.012297 
L 333.001406 82.223953 
Q 333.001406 79.073953 329.851406 79.073953 
L 242.548594 79.073953 
Q 239.398594 79.073953 239.398594 82.223953 
L 239.398594 101.012297 
Q 239.398594 104.162297 242.548594 104.162297 
z
" style="fill: #f7f7f2; stroke: #555555; stroke-linejoin: miter"/>
    </g>
    <!-- Fold scaler + Ridge -->
    <g transform="translate(242.548594 89.062547) scale(0.09 -0.09)">
     <defs>
      <path id="DejaVuSans-73" d="M 2834 3397 
L 2834 2853 
Q 2591 2978 2328 3040 
Q 2066 3103 1784 3103 
Q 1356 3103 1142 2972 
Q 928 2841 928 2578 
Q 928 2378 1081 2264 
Q 1234 2150 1697 2047 
L 1894 2003 
Q 2506 1872 2764 1633 
Q 3022 1394 3022 966 
Q 3022 478 2636 193 
Q 2250 -91 1575 -91 
Q 1294 -91 989 -36 
Q 684 19 347 128 
L 347 722 
Q 666 556 975 473 
Q 1284 391 1588 391 
Q 1994 391 2212 530 
Q 2431 669 2431 922 
Q 2431 1156 2273 1281 
Q 2116 1406 1581 1522 
L 1381 1569 
Q 847 1681 609 1914 
Q 372 2147 372 2553 
Q 372 3047 722 3315 
Q 1072 3584 1716 3584 
Q 2034 3584 2315 3537 
Q 2597 3491 2834 3397 
z
" transform="scale(0.015625)"/>
      <path id="DejaVuSans-2b" d="M 2944 4013 
L 2944 2272 
L 4684 2272 
L 4684 1741 
L 2944 1741 
L 2944 0 
L 2419 0 
L 2419 1741 
L 678 1741 
L 678 2272 
L 2419 2272 
L 2419 4013 
L 2944 4013 
z
" transform="scale(0.015625)"/>
     </defs>
     <use xlink:href="#DejaVuSans-46"/>
     <use xlink:href="#DejaVuSans-6f" transform="translate(53.894531 0)"/>
     <use xlink:href="#DejaVuSans-6c" transform="translate(115.076172 0)"/>
     <use xlink:href="#DejaVuSans-64" transform="translate(142.859375 0)"/>
     <use xlink:href="#DejaVuSans-20" transform="translate(206.335938 0)"/>
     <use xlink:href="#DejaVuSans-73" transform="translate(238.123047 0)"/>
     <use xlink:href="#DejaVuSans-63" transform="translate(290.222656 0)"/>
     <use xlink:href="#DejaVuSans-61" transform="translate(345.203125 0)"/>
     <use xlink:href="#DejaVuSans-6c" transform="translate(406.482422 0)"/>
     <use xlink:href="#DejaVuSans-65" transform="translate(434.265625 0)"/>
     <use xlink:href="#DejaVuSans-72" transform="translate(495.789062 0)"/>
     <use xlink:href="#DejaVuSans-20" transform="translate(536.902344 0)"/>
     <use xlink:href="#DejaVuSans-2b" transform="translate(568.689453 0)"/>
     <use xlink:href="#DejaVuSans-20" transform="translate(652.478516 0)"/>
     <use xlink:href="#DejaVuSans-52" transform="translate(684.265625 0)"/>
     <use xlink:href="#DejaVuSans-69" transform="translate(753.748047 0)"/>
     <use xlink:href="#DejaVuSans-64" transform="translate(781.53125 0)"/>
     <use xlink:href="#DejaVuSans-67" transform="translate(845.007812 0)"/>
     <use xlink:href="#DejaVuSans-65" transform="translate(908.484375 0)"/>
    </g>
    <!-- member models -->
    <g transform="translate(249.401953 99.140578) scale(0.09 -0.09)">
     <use xlink:href="#DejaVuSans-6d"/>
     <use xlink:href="#DejaVuSans-65" transform="translate(97.412109 0)"/>
     <use xlink:href="#DejaVuSans-6d" transform="translate(158.935547 0)"/>
     <use xlink:href="#DejaVuSans-62" transform="translate(256.347656 0)"/>
     <use xlink:href="#DejaVuSans-65" transform="translate(319.824219 0)"/>
     <use xlink:href="#DejaVuSans-72" transform="translate(381.347656 0)"/>
     <use xlink:href="#DejaVuSans-20" transform="translate(422.460938 0)"/>
     <use xlink:href="#DejaVuSans-6d" transform="translate(454.248047 0)"/>
     <use xlink:href="#DejaVuSans-6f" transform="translate(551.660156 0)"/>
     <use xlink:href="#DejaVuSans-64" transform="translate(612.841797 0)"/>
     <use xlink:href="#DejaVuSans-65" transform="translate(676.318359 0)"/>
     <use xlink:href="#DejaVuSans-6c" transform="translate(737.841797 0)"/>
     <use xlink:href="#DejaVuSans-73" transform="translate(765.625 0)"/>
    </g>
   </g>
   <g id="patch_7">
    <path d="M 330.048501 91.618125 
Q 344.78816 91.618125 358.297982 91.618125 
" style="fill: none; stroke: #333333; stroke-width: 1.1; stroke-linecap: round"/>
    <path d="M 354.297982 89.618125 
L 358.297982 91.618125 
L 354.297982 93.618125 
" style="fill: none; stroke: #333333; stroke-width: 1.1; stroke-linecap: round"/>
   </g>
   <g id="text_4">
    <g id="patch_8">
     <path d="M 372.814453 104.162297 
L 433.945547 104.162297 
Q 437.095547 104.162297 437.095547 101.012297 
L 437.095547 82.223953 
Q 437.095547 79.073953 433.945547 79.073953 
L 372.814453 79.073953 
Q 369.664453 79.073953 369.664453 82.223953 
L 369.664453 101.012297 
Q 369.664453 104.162297 372.814453 104.162297 
z
" style="fill: #f7f7f2; stroke: #555555; stroke-linejoin: miter"/>
    </g>
    <!-- Median in nm -->
    <g transform="translate(372.814453 89.062547) scale(0.09 -0.09)">
     <defs>
      <path id="DejaVuSans-4d" d="M 628 4666 
L 1569 4666 
L 2759 1491 
L 3956 4666 
L 4897 4666 
L 4897 0 
L 4281 0 
L 4281 4097 
L 3078 897 
L 2444 897 
L 1241 4097 
L 1241 0 
L 628 0 
L 628 4666 
z
" transform="scale(0.015625)"/>
     </defs>
     <use xlink:href="#DejaVuSans-4d"/>
     <use xlink:href="#DejaVuSans-65" transform="translate(86.279297 0)"/>
     <use xlink:href="#DejaVuSans-64" transform="translate(147.802734 0)"/>
     <use xlink:href="#DejaVuSans-69" transform="translate(211.279297 0)"/>
     <use xlink:href="#DejaVuSans-61" transform="translate(239.0625 0)"/>
     <use xlink:href="#DejaVuSans-6e" transform="translate(300.341797 0)"/>
     <use xlink:href="#DejaVuSans-20" transform="translate(363.720703 0)"/>
     <use xlink:href="#DejaVuSans-69" transform="translate(395.507812 0)"/>
     <use xlink:href="#DejaVuSans-6e" transform="translate(423.291016 0)"/>
     <use xlink:href="#DejaVuSans-20" transform="translate(486.669922 0)"/>
     <use xlink:href="#DejaVuSans-6e" transform="translate(518.457031 0)"/>
     <use xlink:href="#DejaVuSans-6d" transform="translate(581.835938 0)"/>
    </g>
    <!-- space -->
    <g transform="translate(390.178125 99.140578) scale(0.09 -0.09)">
     <defs>
      <path id="DejaVuSans-70" d="M 1159 525 
L 1159 -1331 
L 581 -1331 
L 581 3500 
L 1159 3500 
L 1159 2969 
Q 1341 3281 1617 3432 
Q 1894 3584 2278 3584 
Q 2916 3584 3314 3078 
Q 3713 2572 3713 1747 
Q 3713 922 3314 415 
Q 2916 -91 2278 -91 
Q 1894 -91 1617 61 
Q 1341 213 1159 525 
z
M 3116 1747 
Q 3116 2381 2855 2742 
Q 2594 3103 2138 3103 
Q 1681 3103 1420 2742 
Q 1159 2381 1159 1747 
Q 1159 1113 1420 752 
Q 1681 391 2138 391 
Q 2594 391 2855 752 
Q 3116 1113 3116 1747 
z
" transform="scale(0.015625)"/>
     </defs>
     <use xlink:href="#DejaVuSans-73"/>
     <use xlink:href="#DejaVuSans-70" transform="translate(52.099609 0)"/>
     <use xlink:href="#DejaVuSans-61" transform="translate(115.576172 0)"/>
     <use xlink:href="#DejaVuSans-63" transform="translate(176.855469 0)"/>
     <use xlink:href="#DejaVuSans-65" transform="translate(231.835938 0)"/>
    </g>
   </g>
   <g id="patch_9">
    <path d="M 447.228501 91.618125 
Q 461.96816 91.618125 475.477982 91.618125 
" style="fill: none; stroke: #333333; stroke-width: 1.1; stroke-linecap: round"/>
    <path d="M 471.477982 89.618125 
L 475.477982 91.618125 
L 471.477982 93.618125 
" style="fill: none; stroke: #333333; stroke-width: 1.1; stroke-linecap: round"/>
   </g>
   <g id="text_5">
    <g id="patch_10">
     <path d="M 497.4975 104.162297 
L 543.6225 104.162297 
Q 546.7725 104.162297 546.7725 101.012297 
L 546.7725 82.223953 
Q 546.7725 79.073953 543.6225 79.073953 
L 497.4975 79.073953 
Q 494.3475 79.073953 494.3475 82.223953 
L 494.3475 101.012297 
Q 494.3475 104.162297 497.4975 104.162297 
z
" style="fill: #f7f7f2; stroke: #555555; stroke-linejoin: miter"/>
    </g>
    <!-- Strict OOF -->
    <g transform="translate(497.4975 89.062547) scale(0.09 -0.09)">
     <defs>
      <path id="DejaVuSans-53" d="M 3425 4513 
L 3425 3897 
Q 3066 4069 2747 4153 
Q 2428 4238 2131 4238 
Q 1616 4238 1336 4038 
Q 1056 3838 1056 3469 
Q 1056 3159 1242 3001 
Q 1428 2844 1947 2747 
L 2328 2669 
Q 3034 2534 3370 2195 
Q 3706 1856 3706 1288 
Q 3706 609 3251 259 
Q 2797 -91 1919 -91 
Q 1588 -91 1214 -16 
Q 841 59 441 206 
L 441 856 
Q 825 641 1194 531 
Q 1563 422 1919 422 
Q 2459 422 2753 634 
Q 3047 847 3047 1241 
Q 3047 1584 2836 1778 
Q 2625 1972 2144 2069 
L 1759 2144 
Q 1053 2284 737 2584 
Q 422 2884 422 3419 
Q 422 4038 858 4394 
Q 1294 4750 2059 4750 
Q 2388 4750 2728 4690 
Q 3069 4631 3425 4513 
z
" transform="scale(0.015625)"/>
      <path id="DejaVuSans-74" d="M 1172 4494 
L 1172 3500 
L 2356 3500 
L 2356 3053 
L 1172 3053 
L 1172 1153 
Q 1172 725 1289 603 
Q 1406 481 1766 481 
L 2356 481 
L 2356 0 
L 1766 0 
Q 1100 0 847 248 
Q 594 497 594 1153 
L 594 3053 
L 172 3053 
L 172 3500 
L 594 3500 
L 594 4494 
L 1172 4494 
z
" transform="scale(0.015625)"/>
     </defs>
     <use xlink:href="#DejaVuSans-53"/>
     <use xlink:href="#DejaVuSans-74" transform="translate(63.476562 0)"/>
     <use xlink:href="#DejaVuSans-72" transform="translate(102.685547 0)"/>
     <use xlink:href="#DejaVuSans-69" transform="translate(143.798828 0)"/>
     <use xlink:href="#DejaVuSans-63" transform="translate(171.582031 0)"/>
     <use xlink:href="#DejaVuSans-74" transform="translate(226.5625 0)"/>
     <use xlink:href="#DejaVuSans-20" transform="translate(265.771484 0)"/>
     <use xlink:href="#DejaVuSans-4f" transform="translate(297.558594 0)"/>
     <use xlink:href="#DejaVuSans-4f" transform="translate(376.269531 0)"/>
     <use xlink:href="#DejaVuSans-46" transform="translate(454.980469 0)"/>
    </g>
    <!-- metrics -->
    <g transform="translate(503.725078 99.140578) scale(0.09 -0.09)">
     <use xlink:href="#DejaVuSans-6d"/>
     <use xlink:href="#DejaVuSans-65" transform="translate(97.412109 0)"/>
     <use xlink:href="#DejaVuSans-74" transform="translate(158.935547 0)"/>
     <use xlink:href="#DejaVuSans-72" transform="translate(198.144531 0)"/>
     <use xlink:href="#DejaVuSans-69" transform="translate(239.257812 0)"/>
     <use xlink:href="#DejaVuSans-63" transform="translate(267.041016 0)"/>
     <use xlink:href="#DejaVuSans-73" transform="translate(322.021484 0)"/>
    </g>
   </g>
   <g id="text_6">
    <!-- Quantitative RHEED-to-Rq route -->
    <g transform="translate(189.894375 16.318125) scale(0.12 -0.12)">
     <defs>
      <path id="DejaVuSans-51" d="M 2522 4238 
Q 1834 4238 1429 3725 
Q 1025 3213 1025 2328 
Q 1025 1447 1429 934 
Q 1834 422 2522 422 
Q 3209 422 3611 934 
Q 4013 1447 4013 2328 
Q 4013 3213 3611 3725 
Q 3209 4238 2522 4238 
z
M 3406 84 
L 4238 -825 
L 3475 -825 
L 2784 -78 
Q 2681 -84 2626 -87 
Q 2572 -91 2522 -91 
Q 1538 -91 948 567 
Q 359 1225 359 2328 
Q 359 3434 948 4092 
Q 1538 4750 2522 4750 
Q 3503 4750 4090 4092 
Q 4678 3434 4678 2328 
Q 4678 1516 4351 937 
Q 4025 359 3406 84 
z
" transform="scale(0.015625)"/>
      <path id="DejaVuSans-76" d="M 191 3500 
L 800 3500 
L 1894 563 
L 2988 3500 
L 3597 3500 
L 2284 0 
L 1503 0 
L 191 3500 
z
" transform="scale(0.015625)"/>
      <path id="DejaVuSans-48" d="M 628 4666 
L 1259 4666 
L 1259 2753 
L 3553 2753 
L 3553 4666 
L 4184 4666 
L 4184 0 
L 3553 0 
L 3553 2222 
L 1259 2222 
L 1259 0 
L 628 0 
L 628 4666 
z
" transform="scale(0.015625)"/>
      <path id="DejaVuSans-45" d="M 628 4666 
L 3578 4666 
L 3578 4134 
L 1259 4134 
L 1259 2753 
L 3481 2753 
L 3481 2222 
L 1259 2222 
L 1259 531 
L 3634 531 
L 3634 0 
L 628 0 
L 628 4666 
z
" transform="scale(0.015625)"/>
      <path id="DejaVuSans-71" d="M 947 1747 
Q 947 1113 1208 752 
Q 1469 391 1925 391 
Q 2381 391 2643 752 
Q 2906 1113 2906 1747 
Q 2906 2381 2643 2742 
Q 2381 3103 1925 3103 
Q 1469 3103 1208 2742 
Q 947 2381 947 1747 
z
M 2906 525 
Q 2725 213 2448 61 
Q 2172 -91 1784 -91 
Q 1150 -91 751 415 
Q 353 922 353 1747 
Q 353 2572 751 3078 
Q 1150 3584 1784 3584 
Q 2172 3584 2448 3432 
Q 2725 3281 2906 2969 
L 2906 3500 
L 3481 3500 
L 3481 -1331 
L 2906 -1331 
L 2906 525 
z
" transform="scale(0.015625)"/>
     </defs>
     <use xlink:href="#DejaVuSans-51"/>
     <use xlink:href="#DejaVuSans-75" transform="translate(78.710938 0)"/>
     <use xlink:href="#DejaVuSans-61" transform="translate(142.089844 0)"/>
     <use xlink:href="#DejaVuSans-6e" transform="translate(203.369141 0)"/>
     <use xlink:href="#DejaVuSans-74" transform="translate(266.748047 0)"/>
     <use xlink:href="#DejaVuSans-69" transform="translate(305.957031 0)"/>
     <use xlink:href="#DejaVuSans-74" transform="translate(333.740234 0)"/>
     <use xlink:href="#DejaVuSans-61" transform="translate(372.949219 0)"/>
     <use xlink:href="#DejaVuSans-74" transform="translate(434.228516 0)"/>
     <use xlink:href="#DejaVuSans-69" transform="translate(473.4375 0)"/>
     <use xlink:href="#DejaVuSans-76" transform="translate(501.220703 0)"/>
     <use xlink:href="#DejaVuSans-65" transform="translate(560.400391 0)"/>
     <use xlink:href="#DejaVuSans-20" transform="translate(621.923828 0)"/>
     <use xlink:href="#DejaVuSans-52" transform="translate(653.710938 0)"/>
     <use xlink:href="#DejaVuSans-48" transform="translate(723.193359 0)"/>
     <use xlink:href="#DejaVuSans-45" transform="translate(798.388672 0)"/>
     <use xlink:href="#DejaVuSans-45" transform="translate(861.572266 0)"/>
     <use xlink:href="#DejaVuSans-44" transform="translate(924.755859 0)"/>
     <use xlink:href="#DejaVuSans-2d" transform="translate(1001.757812 0)"/>
     <use xlink:href="#DejaVuSans-74" transform="translate(1037.841797 0)"/>
     <use xlink:href="#DejaVuSans-6f" transform="translate(1077.050781 0)"/>
     <use xlink:href="#DejaVuSans-2d" transform="translate(1140.107422 0)"/>
     <use xlink:href="#DejaVuSans-52" transform="translate(1176.191406 0)"/>
     <use xlink:href="#DejaVuSans-71" transform="translate(1245.673828 0)"/>
     <use xlink:href="#DejaVuSans-20" transform="translate(1309.150391 0)"/>
     <use xlink:href="#DejaVuSans-72" transform="translate(1340.9375 0)"/>
     <use xlink:href="#DejaVuSans-6f" transform="translate(1379.800781 0)"/>
     <use xlink:href="#DejaVuSans-75" transform="translate(1440.982422 0)"/>
     <use xlink:href="#DejaVuSans-74" transform="translate(1504.361328 0)"/>
     <use xlink:href="#DejaVuSans-65" transform="translate(1543.570312 0)"/>
    </g>
   </g>
  </g>
 </g>
</svg>
