<?xml version="1.0" encoding="utf-8" standalone="no"?>
<!DOCTYPE svg PUBLIC "-//W3C//DTD SVG 1.1//EN"
  "http://www.w3.org/Graphics/SVG/1.1/DTD/svg11.dtd">
<svg xmlns:xlink="http://www.w3.org/1999/xlink" width="594.369pt" height="236.16pt" viewBox="0 0 594.369 236.16" xmlns="http://www.w3.org/2000/svg" version="1.1">
 <metadata>
  <rdf:RDF xmlns:dc="http://purl.org/dc/elements/1.1/" xmlns:cc="http://creativecommons.org/ns#" xmlns:rdf="http://www.w3.org/1999/02/22-rdf-syntax-ns#">
   <cc:Work>
    <dc:type rdf:resource="http://purl.org/dc/dcmitype/StillImage"/>
    <dc:date>2026-07-16T01:06:08.998270</dc:date>
    <dc:format>image/svg+xml</dc:format>
    <dc:creator>
     <cc:Agent>
      <dc:title>Matplotlib v3.10.9, https://matplotlib.org/</dc:title>
     </cc:Agent>
    </dc:creator>
   </cc:Work>
  </rdf:RDF>
 </metadata>
 <defs>
  <style type="text/css">*{stroke-linejoin: round; stroke-linecap: butt}</style>
 </defs>
 <g id="figure_1">
  <g id="patch_1">
   <path d="M 0 236.16 
L 594.369 236.16 
L 594.369 0 
L 0 0 
z
" style="fill: #ffffff"/>
  </g>
  <g id="axes_1">
   <g id="text_1">
    <!-- Reconstruction-first workflow -->
    <g transform="translate(17.244 47.1168) scale(0.16 -0.16)">
     <defs>
      <path id="DejaVuSans-Bold-52" d="M 2297 2597 
Q 2675 2597 2839 2737 
Q 3003 2878 3003 3200 
Q 3003 3519 2839 3656 
Q 2675 3794 2297 3794 
L 1791 3794 
L 1791 2597 
L 2297 2597 
z
M 1791 1766 
L 1791 0 
L 588 0 
L 588 4666 
L 2425 4666 
Q 3347 4666 3776 4356 
Q 4206 4047 4206 3378 
Q 4206 2916 3982 2619 
Q 3759 2322 3309 2181 
Q 3556 2125 3751 1926 
Q 3947 1728 4147 1325 
L 4800 0 
L 3519 0 
L 2950 1159 
Q 2778 1509 2601 1637 
Q 2425 1766 2131 1766 
L 1791 1766 
z
" transform="scale(0.015625)"/>
      <path id="DejaVuSans-Bold-65" d="M 4031 1759 
L 4031 1441 
L 1416 1441 
Q 1456 1047 1700 850 
Q 1944 653 2381 653 
Q 2734 653 3104 758 
Q 3475 863 3866 1075 
L 3866 213 
Q 3469 63 3072 -14 
Q 2675 -91 2278 -91 
Q 1328 -91 801 392 
Q 275 875 275 1747 
Q 275 2603 792 3093 
Q 1309 3584 2216 3584 
Q 3041 3584 3536 3087 
Q 4031 2591 4031 1759 
z
M 2881 2131 
Q 2881 2450 2695 2645 
Q 2509 2841 2209 2841 
Q 1884 2841 1681 2658 
Q 1478 2475 1428 2131 
L 2881 2131 
z
" transform="scale(0.015625)"/>
      <path id="DejaVuSans-Bold-63" d="M 3366 3391 
L 3366 2478 
Q 3138 2634 2908 2709 
Q 2678 2784 2431 2784 
Q 1963 2784 1702 2511 
Q 1441 2238 1441 1747 
Q 1441 1256 1702 982 
Q 1963 709 2431 709 
Q 2694 709 2930 787 
Q 3166 866 3366 1019 
L 3366 103 
Q 3103 6 2833 -42 
Q 2563 -91 2291 -91 
Q 1344 -91 809 395 
Q 275 881 275 1747 
Q 275 2613 809 3098 
Q 1344 3584 2291 3584 
Q 2566 3584 2833 3536 
Q 3100 3488 3366 3391 
z
" transform="scale(0.015625)"/>
      <path id="DejaVuSans-Bold-6f" d="M 2203 2784 
Q 1831 2784 1636 2517 
Q 1441 2250 1441 1747 
Q 1441 1244 1636 976 
Q 1831 709 2203 709 
Q 2569 709 2762 976 
Q 2956 1244 2956 1747 
Q 2956 2250 2762 2517 
Q 2569 2784 2203 2784 
z
M 2203 3584 
Q 3106 3584 3614 3096 
Q 4122 2609 4122 1747 
Q 4122 884 3614 396 
Q 3106 -91 2203 -91 
Q 1297 -91 786 396 
Q 275 884 275 1747 
Q 275 2609 786 3096 
Q 1297 3584 2203 3584 
z
" transform="scale(0.015625)"/>
      <path id="DejaVuSans-Bold-6e" d="M 4056 2131 
L 4056 0 
L 2931 0 
L 2931 347 
L 2931 1631 
Q 2931 2084 2911 2256 
Q 2891 2428 2841 2509 
Q 2775 2619 2662 2680 
Q 2550 2741 2406 2741 
Q 2056 2741 1856 2470 
Q 1656 2200 1656 1722 
L 1656 0 
L 538 0 
L 538 3500 
L 1656 3500 
L 1656 2988 
Q 1909 3294 2193 3439 
Q 2478 3584 2822 3584 
Q 3428 3584 3742 3212 
Q 4056 2841 4056 2131 
z
" transform="scale(0.015625)"/>
      <path id="DejaVuSans-Bold-73" d="M 3272 3391 
L 3272 2541 
Q 2913 2691 2578 2766 
Q 2244 2841 1947 2841 
Q 1628 2841 1473 2761 
Q 1319 2681 1319 2516 
Q 1319 2381 1436 2309 
Q 1553 2238 1856 2203 
L 2053 2175 
Q 2913 2066 3209 1816 
Q 3506 1566 3506 1031 
Q 3506 472 3093 190 
Q 2681 -91 1863 -91 
Q 1516 -91 1145 -36 
Q 775 19 384 128 
L 384 978 
Q 719 816 1070 734 
Q 1422 653 1784 653 
Q 2113 653 2278 743 
Q 2444 834 2444 1013 
Q 2444 1163 2330 1236 
Q 2216 1309 1875 1350 
L 1678 1375 
Q 931 1469 631 1722 
Q 331 1975 331 2491 
Q 331 3047 712 3315 
Q 1094 3584 1881 3584 
Q 2191 3584 2531 3537 
Q 2872 3491 3272 3391 
z
" transform="scale(0.015625)"/>
      <path id="DejaVuSans-Bold-74" d="M 1759 4494 
L 1759 3500 
L 2913 3500 
L 2913 2700 
L 1759 2700 
L 1759 1216 
Q 1759 972 1856 886 
Q 1953 800 2241 800 
L 2816 800 
L 2816 0 
L 1856 0 
Q 1194 0 917 276 
Q 641 553 641 1216 
L 641 2700 
L 84 2700 
L 84 3500 
L 641 3500 
L 641 4494 
L 1759 4494 
z
" transform="scale(0.015625)"/>
      <path id="DejaVuSans-Bold-72" d="M 3138 2547 
Q 2991 2616 2845 2648 
Q 2700 2681 2553 2681 
Q 2122 2681 1889 2404 
Q 1656 2128 1656 1613 
L 1656 0 
L 538 0 
L 538 3500 
L 1656 3500 
L 1656 2925 
Q 1872 3269 2151 3426 
Q 2431 3584 2822 3584 
Q 2878 3584 2943 3579 
Q 3009 3575 3134 3559 
L 3138 2547 
z
" transform="scale(0.015625)"/>
      <path id="DejaVuSans-Bold-75" d="M 500 1363 
L 500 3500 
L 1625 3500 
L 1625 3150 
Q 1625 2866 1622 2436 
Q 1619 2006 1619 1863 
Q 1619 1441 1641 1255 
Q 1663 1069 1716 984 
Q 1784 875 1895 815 
Q 2006 756 2150 756 
Q 2500 756 2700 1025 
Q 2900 1294 2900 1772 
L 2900 3500 
L 4019 3500 
L 4019 0 
L 2900 0 
L 2900 506 
Q 2647 200 2364 54 
Q 2081 -91 1741 -91 
Q 1134 -91 817 281 
Q 500 653 500 1363 
z
" transform="scale(0.015625)"/>
      <path id="DejaVuSans-Bold-69" d="M 538 3500 
L 1656 3500 
L 1656 0 
L 538 0 
L 538 3500 
z
M 538 4863 
L 1656 4863 
L 1656 3950 
L 538 3950 
L 538 4863 
z
" transform="scale(0.015625)"/>
      <path id="DejaVuSans-Bold-2d" d="M 347 2297 
L 2309 2297 
L 2309 1388 
L 347 1388 
L 347 2297 
z
" transform="scale(0.015625)"/>
      <path id="DejaVuSans-Bold-66" d="M 2841 4863 
L 2841 4128 
L 2222 4128 
Q 1984 4128 1890 4042 
Q 1797 3956 1797 3744 
L 1797 3500 
L 2753 3500 
L 2753 2700 
L 1797 2700 
L 1797 0 
L 678 0 
L 678 2700 
L 122 2700 
L 122 3500 
L 678 3500 
L 678 3744 
Q 678 4316 997 4589 
Q 1316 4863 1984 4863 
L 2841 4863 
z
" transform="scale(0.015625)"/>
      <path id="DejaVuSans-Bold-20" transform="scale(0.015625)"/>
      <path id="DejaVuSans-Bold-77" d="M 225 3500 
L 1313 3500 
L 1900 1088 
L 2491 3500 
L 3425 3500 
L 4013 1113 
L 4603 3500 
L 5691 3500 
L 4769 0 
L 3547 0 
L 2956 2406 
L 2369 0 
L 1147 0 
L 225 3500 
z
" transform="scale(0.015625)"/>
      <path id="DejaVuSans-Bold-6b" d="M 538 4863 
L 1656 4863 
L 1656 2216 
L 2944 3500 
L 4244 3500 
L 2534 1894 
L 4378 0 
L 3022 0 
L 1656 1459 
L 1656 0 
L 538 0 
L 538 4863 
z
" transform="scale(0.015625)"/>
      <path id="DejaVuSans-Bold-6c" d="M 538 4863 
L 1656 4863 
L 1656 0 
L 538 0 
L 538 4863 
z
" transform="scale(0.015625)"/>
     </defs>
     <use xlink:href="#DejaVuSans-Bold-52"/>
     <use xlink:href="#DejaVuSans-Bold-65" transform="translate(77.001953 0)"/>
     <use xlink:href="#DejaVuSans-Bold-63" transform="translate(144.824219 0)"/>
     <use xlink:href="#DejaVuSans-Bold-6f" transform="translate(204.101562 0)"/>
     <use xlink:href="#DejaVuSans-Bold-6e" transform="translate(272.802734 0)"/>
     <use xlink:href="#DejaVuSans-Bold-73" transform="translate(343.994141 0)"/>
     <use xlink:href="#DejaVuSans-Bold-74" transform="translate(403.515625 0)"/>
     <use xlink:href="#DejaVuSans-Bold-72" transform="translate(451.318359 0)"/>
     <use xlink:href="#DejaVuSans-Bold-75" transform="translate(500.634766 0)"/>
     <use xlink:href="#DejaVuSans-Bold-63" transform="translate(571.826172 0)"/>
     <use xlink:href="#DejaVuSans-Bold-74" transform="translate(631.103516 0)"/>
     <use xlink:href="#DejaVuSans-Bold-69" transform="translate(678.90625 0)"/>
     <use xlink:href="#DejaVuSans-Bold-6f" transform="translate(713.183594 0)"/>
     <use xlink:href="#DejaVuSans-Bold-6e" transform="translate(781.884766 0)"/>
     <use xlink:href="#DejaVuSans-Bold-2d" transform="translate(853.076172 0)"/>
     <use xlink:href="#DejaVuSans-Bold-66" transform="translate(894.580078 0)"/>
     <use xlink:href="#DejaVuSans-Bold-69" transform="translate(938.085938 0)"/>
     <use xlink:href="#DejaVuSans-Bold-72" transform="translate(972.363281 0)"/>
     <use xlink:href="#DejaVuSans-Bold-73" transform="translate(1021.679688 0)"/>
     <use xlink:href="#DejaVuSans-Bold-74" transform="translate(1081.201172 0)"/>
     <use xlink:href="#DejaVuSans-Bold-20" transform="translate(1129.003906 0)"/>
     <use xlink:href="#DejaVuSans-Bold-77" transform="translate(1163.818359 0)"/>
     <use xlink:href="#DejaVuSans-Bold-6f" transform="translate(1256.201172 0)"/>
     <use xlink:href="#DejaVuSans-Bold-72" transform="translate(1324.902344 0)"/>
     <use xlink:href="#DejaVuSans-Bold-6b" transform="translate(1374.21875 0)"/>
     <use xlink:href="#DejaVuSans-Bold-66" transform="translate(1440.722656 0)"/>
     <use xlink:href="#DejaVuSans-Bold-6c" transform="translate(1484.228516 0)"/>
     <use xlink:href="#DejaVuSans-Bold-6f" transform="translate(1518.505859 0)"/>
     <use xlink:href="#DejaVuSans-Bold-77" transform="translate(1587.207031 0)"/>
    </g>
   </g>
   <g id="text_2">
    <!-- RHEED -&gt; predicted descriptors -&gt; retrieval / quilting / spectral / VQ / diffusion -&gt; representative AFM distribution -->
    <g transform="translate(17.244 91.4688) scale(0.1 -0.1)">
     <defs>
      <path id="DejaVuSans-52" d="M 2841 2188 
Q 3044 2119 3236 1894 
Q 3428 1669 3622 1275 
L 4263 0 
L 3584 0 
L 2988 1197 
Q 2756 1666 2539 1819 
Q 2322 1972 1947 1972 
L 1259 1972 
L 1259 0 
L 628 0 
L 628 4666 
L 2053 4666 
Q 2853 4666 3247 4331 
Q 3641 3997 3641 3322 
Q 3641 2881 3436 2590 
Q 3231 2300 2841 2188 
z
M 1259 4147 
L 1259 2491 
L 2053 2491 
Q 2509 2491 2742 2702 
Q 2975 2913 2975 3322 
Q 2975 3731 2742 3939 
Q 2509 4147 2053 4147 
L 1259 4147 
z
" transform="scale(0.015625)"/>
      <path id="DejaVuSans-48" d="M 628 4666 
L 1259 4666 
L 1259 2753 
L 3553 2753 
L 3553 4666 
L 4184 4666 
L 4184 0 
L 3553 0 
L 3553 2222 
L 1259 2222 
L 1259 0 
L 628 0 
L 628 4666 
z
" transform="scale(0.015625)"/>
      <path id="DejaVuSans-45" d="M 628 4666 
L 3578 4666 
L 3578 4134 
L 1259 4134 
L 1259 2753 
L 3481 2753 
L 3481 2222 
L 1259 2222 
L 1259 531 
L 3634 531 
L 3634 0 
L 628 0 
L 628 4666 
z
" transform="scale(0.015625)"/>
      <path id="DejaVuSans-44" d="M 1259 4147 
L 1259 519 
L 2022 519 
Q 2988 519 3436 956 
Q 3884 1394 3884 2338 
Q 3884 3275 3436 3711 
Q 2988 4147 2022 4147 
L 1259 4147 
z
M 628 4666 
L 1925 4666 
Q 3281 4666 3915 4102 
Q 4550 3538 4550 2338 
Q 4550 1131 3912 565 
Q 3275 0 1925 0 
L 628 0 
L 628 4666 
z
" transform="scale(0.015625)"/>
      <path id="DejaVuSans-20" transform="scale(0.015625)"/>
      <path id="DejaVuSans-2d" d="M 313 2009 
L 1997 2009 
L 1997 1497 
L 313 1497 
L 313 2009 
z
" transform="scale(0.015625)"/>
      <path id="DejaVuSans-3e" d="M 678 3150 
L 678 3719 
L 4684 2266 
L 4684 1747 
L 678 294 
L 678 863 
L 3897 2003 
L 678 3150 
z
" transform="scale(0.015625)"/>
      <path id="DejaVuSans-70" d="M 1159 525 
L 1159 -1331 
L 581 -1331 
L 581 3500 
L 1159 3500 
L 1159 2969 
Q 1341 3281 1617 3432 
Q 1894 3584 2278 3584 
Q 2916 3584 3314 3078 
Q 3713 2572 3713 1747 
Q 3713 922 3314 415 
Q 2916 -91 2278 -91 
Q 1894 -91 1617 61 
Q 1341 213 1159 525 
z
M 3116 1747 
Q 3116 2381 2855 2742 
Q 2594 3103 2138 3103 
Q 1681 3103 1420 2742 
Q 1159 2381 1159 1747 
Q 1159 1113 1420 752 
Q 1681 391 2138 391 
Q 2594 391 2855 752 
Q 3116 1113 3116 1747 
z
" transform="scale(0.015625)"/>
      <path id="DejaVuSans-72" d="M 2631 2963 
Q 2534 3019 2420 3045 
Q 2306 3072 2169 3072 
Q 1681 3072 1420 2755 
Q 1159 2438 1159 1844 
L 1159 0 
L 581 0 
L 581 3500 
L 1159 3500 
L 1159 2956 
Q 1341 3275 1631 3429 
Q 1922 3584 2338 3584 
Q 2397 3584 2469 3576 
Q 2541 3569 2628 3553 
L 2631 2963 
z
" transform="scale(0.015625)"/>
      <path id="DejaVuSans-65" d="M 3597 1894 
L 3597 1613 
L 953 1613 
Q 991 1019 1311 708 
Q 1631 397 2203 397 
Q 2534 397 2845 478 
Q 3156 559 3463 722 
L 3463 178 
Q 3153 47 2828 -22 
Q 2503 -91 2169 -91 
Q 1331 -91 842 396 
Q 353 884 353 1716 
Q 353 2575 817 3079 
Q 1281 3584 2069 3584 
Q 2775 3584 3186 3129 
Q 3597 2675 3597 1894 
z
M 3022 2063 
Q 3016 2534 2758 2815 
Q 2500 3097 2075 3097 
Q 1594 3097 1305 2825 
Q 1016 2553 972 2059 
L 3022 2063 
z
" transform="scale(0.015625)"/>
      <path id="DejaVuSans-64" d="M 2906 2969 
L 2906 4863 
L 3481 4863 
L 3481 0 
L 2906 0 
L 2906 525 
Q 2725 213 2448 61 
Q 2172 -91 1784 -91 
Q 1150 -91 751 415 
Q 353 922 353 1747 
Q 353 2572 751 3078 
Q 1150 3584 1784 3584 
Q 2172 3584 2448 3432 
Q 2725 3281 2906 2969 
z
M 947 1747 
Q 947 1113 1208 752 
Q 1469 391 1925 391 
Q 2381 391 2643 752 
Q 2906 1113 2906 1747 
Q 2906 2381 2643 2742 
Q 2381 3103 1925 3103 
Q 1469 3103 1208 2742 
Q 947 2381 947 1747 
z
" transform="scale(0.015625)"/>
      <path id="DejaVuSans-69" d="M 603 3500 
L 1178 3500 
L 1178 0 
L 603 0 
L 603 3500 
z
M 603 4863 
L 1178 4863 
L 1178 4134 
L 603 4134 
L 603 4863 
z
" transform="scale(0.015625)"/>
      <path id="DejaVuSans-63" d="M 3122 3366 
L 3122 2828 
Q 2878 2963 2633 3030 
Q 2388 3097 2138 3097 
Q 1578 3097 1268 2742 
Q 959 2388 959 1747 
Q 959 1106 1268 751 
Q 1578 397 2138 397 
Q 2388 397 2633 464 
Q 2878 531 3122 666 
L 3122 134 
Q 2881 22 2623 -34 
Q 2366 -91 2075 -91 
Q 1284 -91 818 406 
Q 353 903 353 1747 
Q 353 2603 823 3093 
Q 1294 3584 2113 3584 
Q 2378 3584 2631 3529 
Q 2884 3475 3122 3366 
z
" transform="scale(0.015625)"/>
      <path id="DejaVuSans-74" d="M 1172 4494 
L 1172 3500 
L 2356 3500 
L 2356 3053 
L 1172 3053 
L 1172 1153 
Q 1172 725 1289 603 
Q 1406 481 1766 481 
L 2356 481 
L 2356 0 
L 1766 0 
Q 1100 0 847 248 
Q 594 497 594 1153 
L 594 3053 
L 172 3053 
L 172 3500 
L 594 3500 
L 594 4494 
L 1172 4494 
z
" transform="scale(0.015625)"/>
      <path id="DejaVuSans-73" d="M 2834 3397 
L 2834 2853 
Q 2591 2978 2328 3040 
Q 2066 3103 1784 3103 
Q 1356 3103 1142 2972 
Q 928 2841 928 2578 
Q 928 2378 1081 2264 
Q 1234 2150 1697 2047 
L 1894 2003 
Q 2506 1872 2764 1633 
Q 3022 1394 3022 966 
Q 3022 478 2636 193 
Q 2250 -91 1575 -91 
Q 1294 -91 989 -36 
Q 684 19 347 128 
L 347 722 
Q 666 556 975 473 
Q 1284 391 1588 391 
Q 1994 391 2212 530 
Q 2431 669 2431 922 
Q 2431 1156 2273 1281 
Q 2116 1406 1581 1522 
L 1381 1569 
Q 847 1681 609 1914 
Q 372 2147 372 2553 
Q 372 3047 722 3315 
Q 1072 3584 1716 3584 
Q 2034 3584 2315 3537 
Q 2597 3491 2834 3397 
z
" transform="scale(0.015625)"/>
      <path id="DejaVuSans-6f" d="M 1959 3097 
Q 1497 3097 1228 2736 
Q 959 2375 959 1747 
Q 959 1119 1226 758 
Q 1494 397 1959 397 
Q 2419 397 2687 759 
Q 2956 1122 2956 1747 
Q 2956 2369 2687 2733 
Q 2419 3097 1959 3097 
z
M 1959 3584 
Q 2709 3584 3137 3096 
Q 3566 2609 3566 1747 
Q 3566 888 3137 398 
Q 2709 -91 1959 -91 
Q 1206 -91 779 398 
Q 353 888 353 1747 
Q 353 2609 779 3096 
Q 1206 3584 1959 3584 
z
" transform="scale(0.015625)"/>
      <path id="DejaVuSans-76" d="M 191 3500 
L 800 3500 
L 1894 563 
L 2988 3500 
L 3597 3500 
L 2284 0 
L 1503 0 
L 191 3500 
z
" transform="scale(0.015625)"/>
      <path id="DejaVuSans-61" d="M 2194 1759 
Q 1497 1759 1228 1600 
Q 959 1441 959 1056 
Q 959 750 1161 570 
Q 1363 391 1709 391 
Q 2188 391 2477 730 
Q 2766 1069 2766 1631 
L 2766 1759 
L 2194 1759 
z
M 3341 1997 
L 3341 0 
L 2766 0 
L 2766 531 
Q 2569 213 2275 61 
Q 1981 -91 1556 -91 
Q 1019 -91 701 211 
Q 384 513 384 1019 
Q 384 1609 779 1909 
Q 1175 2209 1959 2209 
L 2766 2209 
L 2766 2266 
Q 2766 2663 2505 2880 
Q 2244 3097 1772 3097 
Q 1472 3097 1187 3025 
Q 903 2953 641 2809 
L 641 3341 
Q 956 3463 1253 3523 
Q 1550 3584 1831 3584 
Q 2591 3584 2966 3190 
Q 3341 2797 3341 1997 
z
" transform="scale(0.015625)"/>
      <path id="DejaVuSans-6c" d="M 603 4863 
L 1178 4863 
L 1178 0 
L 603 0 
L 603 4863 
z
" transform="scale(0.015625)"/>
      <path id="DejaVuSans-2f" d="M 1625 4666 
L 2156 4666 
L 531 -594 
L 0 -594 
L 1625 4666 
z
" transform="scale(0.015625)"/>
      <path id="DejaVuSans-71" d="M 947 1747 
Q 947 1113 1208 752 
Q 1469 391 1925 391 
Q 2381 391 2643 752 
Q 2906 1113 2906 1747 
Q 2906 2381 2643 2742 
Q 2381 3103 1925 3103 
Q 1469 3103 1208 2742 
Q 947 2381 947 1747 
z
M 2906 525 
Q 2725 213 2448 61 
Q 2172 -91 1784 -91 
Q 1150 -91 751 415 
Q 353 922 353 1747 
Q 353 2572 751 3078 
Q 1150 3584 1784 3584 
Q 2172 3584 2448 3432 
Q 2725 3281 2906 2969 
L 2906 3500 
L 3481 3500 
L 3481 -1331 
L 2906 -1331 
L 2906 525 
z
" transform="scale(0.015625)"/>
      <path id="DejaVuSans-75" d="M 544 1381 
L 544 3500 
L 1119 3500 
L 1119 1403 
Q 1119 906 1312 657 
Q 1506 409 1894 409 
Q 2359 409 2629 706 
Q 2900 1003 2900 1516 
L 2900 3500 
L 3475 3500 
L 3475 0 
L 2900 0 
L 2900 538 
Q 2691 219 2414 64 
Q 2138 -91 1772 -91 
Q 1169 -91 856 284 
Q 544 659 544 1381 
z
M 1991 3584 
L 1991 3584 
z
" transform="scale(0.015625)"/>
      <path id="DejaVuSans-6e" d="M 3513 2113 
L 3513 0 
L 2938 0 
L 2938 2094 
Q 2938 2591 2744 2837 
Q 2550 3084 2163 3084 
Q 1697 3084 1428 2787 
Q 1159 2491 1159 1978 
L 1159 0 
L 581 0 
L 581 3500 
L 1159 3500 
L 1159 2956 
Q 1366 3272 1645 3428 
Q 1925 3584 2291 3584 
Q 2894 3584 3203 3211 
Q 3513 2838 3513 2113 
z
" transform="scale(0.015625)"/>
      <path id="DejaVuSans-67" d="M 2906 1791 
Q 2906 2416 2648 2759 
Q 2391 3103 1925 3103 
Q 1463 3103 1205 2759 
Q 947 2416 947 1791 
Q 947 1169 1205 825 
Q 1463 481 1925 481 
Q 2391 481 2648 825 
Q 2906 1169 2906 1791 
z
M 3481 434 
Q 3481 -459 3084 -895 
Q 2688 -1331 1869 -1331 
Q 1566 -1331 1297 -1286 
Q 1028 -1241 775 -1147 
L 775 -588 
Q 1028 -725 1275 -790 
Q 1522 -856 1778 -856 
Q 2344 -856 2625 -561 
Q 2906 -266 2906 331 
L 2906 616 
Q 2728 306 2450 153 
Q 2172 0 1784 0 
Q 1141 0 747 490 
Q 353 981 353 1791 
Q 353 2603 747 3093 
Q 1141 3584 1784 3584 
Q 2172 3584 2450 3431 
Q 2728 3278 2906 2969 
L 2906 3500 
L 3481 3500 
L 3481 434 
z
" transform="scale(0.015625)"/>
      <path id="DejaVuSans-56" d="M 1831 0 
L 50 4666 
L 709 4666 
L 2188 738 
L 3669 4666 
L 4325 4666 
L 2547 0 
L 1831 0 
z
" transform="scale(0.015625)"/>
      <path id="DejaVuSans-51" d="M 2522 4238 
Q 1834 4238 1429 3725 
Q 1025 3213 1025 2328 
Q 1025 1447 1429 934 
Q 1834 422 2522 422 
Q 3209 422 3611 934 
Q 4013 1447 4013 2328 
Q 4013 3213 3611 3725 
Q 3209 4238 2522 4238 
z
M 3406 84 
L 4238 -825 
L 3475 -825 
L 2784 -78 
Q 2681 -84 2626 -87 
Q 2572 -91 2522 -91 
Q 1538 -91 948 567 
Q 359 1225 359 2328 
Q 359 3434 948 4092 
Q 1538 4750 2522 4750 
Q 3503 4750 4090 4092 
Q 4678 3434 4678 2328 
Q 4678 1516 4351 937 
Q 4025 359 3406 84 
z
" transform="scale(0.015625)"/>
      <path id="DejaVuSans-66" d="M 2375 4863 
L 2375 4384 
L 1825 4384 
Q 1516 4384 1395 4259 
Q 1275 4134 1275 3809 
L 1275 3500 
L 2222 3500 
L 2222 3053 
L 1275 3053 
L 1275 0 
L 697 0 
L 697 3053 
L 147 3053 
L 147 3500 
L 697 3500 
L 697 3744 
Q 697 4328 969 4595 
Q 1241 4863 1831 4863 
L 2375 4863 
z
" transform="scale(0.015625)"/>
      <path id="DejaVuSans-41" d="M 2188 4044 
L 1331 1722 
L 3047 1722 
L 2188 4044 
z
M 1831 4666 
L 2547 4666 
L 4325 0 
L 3669 0 
L 3244 1197 
L 1141 1197 
L 716 0 
L 50 0 
L 1831 4666 
z
" transform="scale(0.015625)"/>
      <path id="DejaVuSans-46" d="M 628 4666 
L 3309 4666 
L 3309 4134 
L 1259 4134 
L 1259 2759 
L 3109 2759 
L 3109 2228 
L 1259 2228 
L 1259 0 
L 628 0 
L 628 4666 
z
" transform="scale(0.015625)"/>
      <path id="DejaVuSans-4d" d="M 628 4666 
L 1569 4666 
L 2759 1491 
L 3956 4666 
L 4897 4666 
L 4897 0 
L 4281 0 
L 4281 4097 
L 3078 897 
L 2444 897 
L 1241 4097 
L 1241 0 
L 628 0 
L 628 4666 
z
" transform="scale(0.015625)"/>
      <path id="DejaVuSans-62" d="M 3116 1747 
Q 3116 2381 2855 2742 
Q 2594 3103 2138 3103 
Q 1681 3103 1420 2742 
Q 1159 2381 1159 1747 
Q 1159 1113 1420 752 
Q 1681 391 2138 391 
Q 2594 391 2855 752 
Q 3116 1113 3116 1747 
z
M 1159 2969 
Q 1341 3281 1617 3432 
Q 1894 3584 2278 3584 
Q 2916 3584 3314 3078 
Q 3713 2572 3713 1747 
Q 3713 922 3314 415 
Q 2916 -91 2278 -91 
Q 1894 -91 1617 61 
Q 1341 213 1159 525 
L 1159 0 
L 581 0 
L 581 4863 
L 1159 4863 
L 1159 2969 
z
" transform="scale(0.015625)"/>
     </defs>
     <use xlink:href="#DejaVuSans-52"/>
     <use xlink:href="#DejaVuSans-48" transform="translate(69.482422 0)"/>
     <use xlink:href="#DejaVuSans-45" transform="translate(144.677734 0)"/>
     <use xlink:href="#DejaVuSans-45" transform="translate(207.861328 0)"/>
     <use xlink:href="#DejaVuSans-44" transform="translate(271.044922 0)"/>
     <use xlink:href="#DejaVuSans-20" transform="translate(348.046875 0)"/>
     <use xlink:href="#DejaVuSans-2d" transform="translate(379.833984 0)"/>
     <use xlink:href="#DejaVuSans-3e" transform="translate(415.917969 0)"/>
     <use xlink:href="#DejaVuSans-20" transform="translate(499.707031 0)"/>
     <use xlink:href="#DejaVuSans-70" transform="translate(531.494141 0)"/>
     <use xlink:href="#DejaVuSans-72" transform="translate(594.970703 0)"/>
     <use xlink:href="#DejaVuSans-65" transform="translate(633.833984 0)"/>
     <use xlink:href="#DejaVuSans-64" transform="translate(695.357422 0)"/>
     <use xlink:href="#DejaVuSans-69" transform="translate(758.833984 0)"/>
     <use xlink:href="#DejaVuSans-63" transform="translate(786.617188 0)"/>
     <use xlink:href="#DejaVuSans-74" transform="translate(841.597656 0)"/>
     <use xlink:href="#DejaVuSans-65" transform="translate(880.806641 0)"/>
     <use xlink:href="#DejaVuSans-64" transform="translate(942.330078 0)"/>
     <use xlink:href="#DejaVuSans-20" transform="translate(1005.806641 0)"/>
     <use xlink:href="#DejaVuSans-64" transform="translate(1037.59375 0)"/>
     <use xlink:href="#DejaVuSans-65" transform="translate(1101.070312 0)"/>
     <use xlink:href="#DejaVuSans-73" transform="translate(1162.59375 0)"/>
     <use xlink:href="#DejaVuSans-63" transform="translate(1214.693359 0)"/>
     <use xlink:href="#DejaVuSans-72" transform="translate(1269.673828 0)"/>
     <use xlink:href="#DejaVuSans-69" transform="translate(1310.787109 0)"/>
     <use xlink:href="#DejaVuSans-70" transform="translate(1338.570312 0)"/>
     <use xlink:href="#DejaVuSans-74" transform="translate(1402.046875 0)"/>
     <use xlink:href="#DejaVuSans-6f" transform="translate(1441.255859 0)"/>
     <use xlink:href="#DejaVuSans-72" transform="translate(1502.4375 0)"/>
     <use xlink:href="#DejaVuSans-73" transform="translate(1543.550781 0)"/>
     <use xlink:href="#DejaVuSans-20" transform="translate(1595.650391 0)"/>
     <use xlink:href="#DejaVuSans-2d" transform="translate(1627.4375 0)"/>
     <use xlink:href="#DejaVuSans-3e" transform="translate(1663.521484 0)"/>
     <use xlink:href="#DejaVuSans-20" transform="translate(1747.310547 0)"/>
     <use xlink:href="#DejaVuSans-72" transform="translate(1779.097656 0)"/>
     <use xlink:href="#DejaVuSans-65" transform="translate(1817.960938 0)"/>
     <use xlink:href="#DejaVuSans-74" transform="translate(1879.484375 0)"/>
     <use xlink:href="#DejaVuSans-72" transform="translate(1918.693359 0)"/>
     <use xlink:href="#DejaVuSans-69" transform="translate(1959.806641 0)"/>
     <use xlink:href="#DejaVuSans-65" transform="translate(1987.589844 0)"/>
     <use xlink:href="#DejaVuSans-76" transform="translate(2049.113281 0)"/>
     <use xlink:href="#DejaVuSans-61" transform="translate(2108.292969 0)"/>
     <use xlink:href="#DejaVuSans-6c" transform="translate(2169.572266 0)"/>
     <use xlink:href="#DejaVuSans-20" transform="translate(2197.355469 0)"/>
     <use xlink:href="#DejaVuSans-2f" transform="translate(2229.142578 0)"/>
     <use xlink:href="#DejaVuSans-20" transform="translate(2262.833984 0)"/>
     <use xlink:href="#DejaVuSans-71" transform="translate(2294.621094 0)"/>
     <use xlink:href="#DejaVuSans-75" transform="translate(2358.097656 0)"/>
     <use xlink:href="#DejaVuSans-69" transform="translate(2421.476562 0)"/>
     <use xlink:href="#DejaVuSans-6c" transform="translate(2449.259766 0)"/>
     <use xlink:href="#DejaVuSans-74" transform="translate(2477.042969 0)"/>
     <use xlink:href="#DejaVuSans-69" transform="translate(2516.251953 0)"/>
     <use xlink:href="#DejaVuSans-6e" transform="translate(2544.035156 0)"/>
     <use xlink:href="#DejaVuSans-67" transform="translate(2607.414062 0)"/>
     <use xlink:href="#DejaVuSans-20" transform="translate(2670.890625 0)"/>
     <use xlink:href="#DejaVuSans-2f" transform="translate(2702.677734 0)"/>
     <use xlink:href="#DejaVuSans-20" transform="translate(2736.369141 0)"/>
     <use xlink:href="#DejaVuSans-73" transform="translate(2768.15625 0)"/>
     <use xlink:href="#DejaVuSans-70" transform="translate(2820.255859 0)"/>
     <use xlink:href="#DejaVuSans-65" transform="translate(2883.732422 0)"/>
     <use xlink:href="#DejaVuSans-63" transform="translate(2945.255859 0)"/>
     <use xlink:href="#DejaVuSans-74" transform="translate(3000.236328 0)"/>
     <use xlink:href="#DejaVuSans-72" transform="translate(3039.445312 0)"/>
     <use xlink:href="#DejaVuSans-61" transform="translate(3080.558594 0)"/>
     <use xlink:href="#DejaVuSans-6c" transform="translate(3141.837891 0)"/>
     <use xlink:href="#DejaVuSans-20" transform="translate(3169.621094 0)"/>
     <use xlink:href="#DejaVuSans-2f" transform="translate(3201.408203 0)"/>
     <use xlink:href="#DejaVuSans-20" transform="translate(3235.099609 0)"/>
     <use xlink:href="#DejaVuSans-56" transform="translate(3266.886719 0)"/>
     <use xlink:href="#DejaVuSans-51" transform="translate(3335.294922 0)"/>
     <use xlink:href="#DejaVuSans-20" transform="translate(3414.005859 0)"/>
     <use xlink:href="#DejaVuSans-2f" transform="translate(3445.792969 0)"/>
     <use xlink:href="#DejaVuSans-20" transform="translate(3479.484375 0)"/>
     <use xlink:href="#DejaVuSans-64" transform="translate(3511.271484 0)"/>
     <use xlink:href="#DejaVuSans-69" transform="translate(3574.748047 0)"/>
     <use xlink:href="#DejaVuSans-66" transform="translate(3602.53125 0)"/>
     <use xlink:href="#DejaVuSans-66" transform="translate(3637.736328 0)"/>
     <use xlink:href="#DejaVuSans-75" transform="translate(3672.941406 0)"/>
     <use xlink:href="#DejaVuSans-73" transform="translate(3736.320312 0)"/>
     <use xlink:href="#DejaVuSans-69" transform="translate(3788.419922 0)"/>
     <use xlink:href="#DejaVuSans-6f" transform="translate(3816.203125 0)"/>
     <use xlink:href="#DejaVuSans-6e" transform="translate(3877.384766 0)"/>
     <use xlink:href="#DejaVuSans-20" transform="translate(3940.763672 0)"/>
     <use xlink:href="#DejaVuSans-2d" transform="translate(3972.550781 0)"/>
     <use xlink:href="#DejaVuSans-3e" transform="translate(4008.634766 0)"/>
     <use xlink:href="#DejaVuSans-20" transform="translate(4092.423828 0)"/>
     <use xlink:href="#DejaVuSans-72" transform="translate(4124.210938 0)"/>
     <use xlink:href="#DejaVuSans-65" transform="translate(4163.074219 0)"/>
     <use xlink:href="#DejaVuSans-70" transform="translate(4224.597656 0)"/>
     <use xlink:href="#DejaVuSans-72" transform="translate(4288.074219 0)"/>
     <use xlink:href="#DejaVuSans-65" transform="translate(4326.9375 0)"/>
     <use xlink:href="#DejaVuSans-73" transform="translate(4388.460938 0)"/>
     <use xlink:href="#DejaVuSans-65" transform="translate(4440.560547 0)"/>
     <use xlink:href="#DejaVuSans-6e" transform="translate(4502.083984 0)"/>
     <use xlink:href="#DejaVuSans-74" transform="translate(4565.462891 0)"/>
     <use xlink:href="#DejaVuSans-61" transform="translate(4604.671875 0)"/>
     <use xlink:href="#DejaVuSans-74" transform="translate(4665.951172 0)"/>
     <use xlink:href="#DejaVuSans-69" transform="translate(4705.160156 0)"/>
     <use xlink:href="#DejaVuSans-76" transform="translate(4732.943359 0)"/>
     <use xlink:href="#DejaVuSans-65" transform="translate(4792.123047 0)"/>
     <use xlink:href="#DejaVuSans-20" transform="translate(4853.646484 0)"/>
     <use xlink:href="#DejaVuSans-41" transform="translate(4885.433594 0)"/>
     <use xlink:href="#DejaVuSans-46" transform="translate(4953.841797 0)"/>
     <use xlink:href="#DejaVuSans-4d" transform="translate(5011.361328 0)"/>
     <use xlink:href="#DejaVuSans-20" transform="translate(5097.640625 0)"/>
     <use xlink:href="#DejaVuSans-64" transform="translate(5129.427734 0)"/>
     <use xlink:href="#DejaVuSans-69" transform="translate(5192.904297 0)"/>
     <use xlink:href="#DejaVuSans-73" transform="translate(5220.6875 0)"/>
     <use xlink:href="#DejaVuSans-74" transform="translate(5272.787109 0)"/>
     <use xlink:href="#DejaVuSans-72" transform="translate(5311.996094 0)"/>
     <use xlink:href="#DejaVuSans-69" transform="translate(5353.109375 0)"/>
     <use xlink:href="#DejaVuSans-62" transform="translate(5380.892578 0)"/>
     <use xlink:href="#DejaVuSans-75" transform="translate(5444.369141 0)"/>
     <use xlink:href="#DejaVuSans-74" transform="translate(5507.748047 0)"/>
     <use xlink:href="#DejaVuSans-69" transform="translate(5546.957031 0)"/>
     <use xlink:href="#DejaVuSans-6f" transform="translate(5574.740234 0)"/>
     <use xlink:href="#DejaVuSans-6e" transform="translate(5635.921875 0)"/>
    </g>
   </g>
   <g id="text_3">
    <!-- Tracks: strict OOF, oracle descriptor upper bound, full-cohort development -->
    <g transform="translate(17.244 135.8208) scale(0.1 -0.1)">
     <defs>
      <path id="DejaVuSans-54" d="M -19 4666 
L 3928 4666 
L 3928 4134 
L 2272 4134 
L 2272 0 
L 1638 0 
L 1638 4134 
L -19 4134 
L -19 4666 
z
" transform="scale(0.015625)"/>
      <path id="DejaVuSans-6b" d="M 581 4863 
L 1159 4863 
L 1159 1991 
L 2875 3500 
L 3609 3500 
L 1753 1863 
L 3688 0 
L 2938 0 
L 1159 1709 
L 1159 0 
L 581 0 
L 581 4863 
z
" transform="scale(0.015625)"/>
      <path id="DejaVuSans-3a" d="M 750 794 
L 1409 794 
L 1409 0 
L 750 0 
L 750 794 
z
M 750 3309 
L 1409 3309 
L 1409 2516 
L 750 2516 
L 750 3309 
z
" transform="scale(0.015625)"/>
      <path id="DejaVuSans-4f" d="M 2522 4238 
Q 1834 4238 1429 3725 
Q 1025 3213 1025 2328 
Q 1025 1447 1429 934 
Q 1834 422 2522 422 
Q 3209 422 3611 934 
Q 4013 1447 4013 2328 
Q 4013 3213 3611 3725 
Q 3209 4238 2522 4238 
z
M 2522 4750 
Q 3503 4750 4090 4092 
Q 4678 3434 4678 2328 
Q 4678 1225 4090 567 
Q 3503 -91 2522 -91 
Q 1538 -91 948 565 
Q 359 1222 359 2328 
Q 359 3434 948 4092 
Q 1538 4750 2522 4750 
z
" transform="scale(0.015625)"/>
      <path id="DejaVuSans-2c" d="M 750 794 
L 1409 794 
L 1409 256 
L 897 -744 
L 494 -744 
L 750 256 
L 750 794 
z
" transform="scale(0.015625)"/>
      <path id="DejaVuSans-68" d="M 3513 2113 
L 3513 0 
L 2938 0 
L 2938 2094 
Q 2938 2591 2744 2837 
Q 2550 3084 2163 3084 
Q 1697 3084 1428 2787 
Q 1159 2491 1159 1978 
L 1159 0 
L 581 0 
L 581 4863 
L 1159 4863 
L 1159 2956 
Q 1366 3272 1645 3428 
Q 1925 3584 2291 3584 
Q 2894 3584 3203 3211 
Q 3513 2838 3513 2113 
z
" transform="scale(0.015625)"/>
      <path id="DejaVuSans-6d" d="M 3328 2828 
Q 3544 3216 3844 3400 
Q 4144 3584 4550 3584 
Q 5097 3584 5394 3201 
Q 5691 2819 5691 2113 
L 5691 0 
L 5113 0 
L 5113 2094 
Q 5113 2597 4934 2840 
Q 4756 3084 4391 3084 
Q 3944 3084 3684 2787 
Q 3425 2491 3425 1978 
L 3425 0 
L 2847 0 
L 2847 2094 
Q 2847 2600 2669 2842 
Q 2491 3084 2119 3084 
Q 1678 3084 1418 2786 
Q 1159 2488 1159 1978 
L 1159 0 
L 581 0 
L 581 3500 
L 1159 3500 
L 1159 2956 
Q 1356 3278 1631 3431 
Q 1906 3584 2284 3584 
Q 2666 3584 2933 3390 
Q 3200 3197 3328 2828 
z
" transform="scale(0.015625)"/>
     </defs>
     <use xlink:href="#DejaVuSans-54"/>
     <use xlink:href="#DejaVuSans-72" transform="translate(46.333984 0)"/>
     <use xlink:href="#DejaVuSans-61" transform="translate(87.447266 0)"/>
     <use xlink:href="#DejaVuSans-63" transform="translate(148.726562 0)"/>
     <use xlink:href="#DejaVuSans-6b" transform="translate(203.707031 0)"/>
     <use xlink:href="#DejaVuSans-73" transform="translate(261.617188 0)"/>
     <use xlink:href="#DejaVuSans-3a" transform="translate(313.716797 0)"/>
     <use xlink:href="#DejaVuSans-20" transform="translate(347.408203 0)"/>
     <use xlink:href="#DejaVuSans-73" transform="translate(379.195312 0)"/>
     <use xlink:href="#DejaVuSans-74" transform="translate(431.294922 0)"/>
     <use xlink:href="#DejaVuSans-72" transform="translate(470.503906 0)"/>
     <use xlink:href="#DejaVuSans-69" transform="translate(511.617188 0)"/>
     <use xlink:href="#DejaVuSans-63" transform="translate(539.400391 0)"/>
     <use xlink:href="#DejaVuSans-74" transform="translate(594.380859 0)"/>
     <use xlink:href="#DejaVuSans-20" transform="translate(633.589844 0)"/>
     <use xlink:href="#DejaVuSans-4f" transform="translate(665.376953 0)"/>
     <use xlink:href="#DejaVuSans-4f" transform="translate(744.087891 0)"/>
     <use xlink:href="#DejaVuSans-46" transform="translate(822.798828 0)"/>
     <use xlink:href="#DejaVuSans-2c" transform="translate(880.318359 0)"/>
     <use xlink:href="#DejaVuSans-20" transform="translate(912.105469 0)"/>
     <use xlink:href="#DejaVuSans-6f" transform="translate(943.892578 0)"/>
     <use xlink:href="#DejaVuSans-72" transform="translate(1005.074219 0)"/>
     <use xlink:href="#DejaVuSans-61" transform="translate(1046.1875 0)"/>
     <use xlink:href="#DejaVuSans-63" transform="translate(1107.466797 0)"/>
     <use xlink:href="#DejaVuSans-6c" transform="translate(1162.447266 0)"/>
     <use xlink:href="#DejaVuSans-65" transform="translate(1190.230469 0)"/>
     <use xlink:href="#DejaVuSans-20" transform="translate(1251.753906 0)"/>
     <use xlink:href="#DejaVuSans-64" transform="translate(1283.541016 0)"/>
     <use xlink:href="#DejaVuSans-65" transform="translate(1347.017578 0)"/>
     <use xlink:href="#DejaVuSans-73" transform="translate(1408.541016 0)"/>
     <use xlink:href="#DejaVuSans-63" transform="translate(1460.640625 0)"/>
     <use xlink:href="#DejaVuSans-72" transform="translate(1515.621094 0)"/>
     <use xlink:href="#DejaVuSans-69" transform="translate(1556.734375 0)"/>
     <use xlink:href="#DejaVuSans-70" transform="translate(1584.517578 0)"/>
     <use xlink:href="#DejaVuSans-74" transform="translate(1647.994141 0)"/>
     <use xlink:href="#DejaVuSans-6f" transform="translate(1687.203125 0)"/>
     <use xlink:href="#DejaVuSans-72" transform="translate(1748.384766 0)"/>
     <use xlink:href="#DejaVuSans-20" transform="translate(1789.498047 0)"/>
     <use xlink:href="#DejaVuSans-75" transform="translate(1821.285156 0)"/>
     <use xlink:href="#DejaVuSans-70" transform="translate(1884.664062 0)"/>
     <use xlink:href="#DejaVuSans-70" transform="translate(1948.140625 0)"/>
     <use xlink:href="#DejaVuSans-65" transform="translate(2011.617188 0)"/>
     <use xlink:href="#DejaVuSans-72" transform="translate(2073.140625 0)"/>
     <use xlink:href="#DejaVuSans-20" transform="translate(2114.253906 0)"/>
     <use xlink:href="#DejaVuSans-62" transform="translate(2146.041016 0)"/>
     <use xlink:href="#DejaVuSans-6f" transform="translate(2209.517578 0)"/>
     <use xlink:href="#DejaVuSans-75" transform="translate(2270.699219 0)"/>
     <use xlink:href="#DejaVuSans-6e" transform="translate(2334.078125 0)"/>
     <use xlink:href="#DejaVuSans-64" transform="translate(2397.457031 0)"/>
     <use xlink:href="#DejaVuSans-2c" transform="translate(2460.933594 0)"/>
     <use xlink:href="#DejaVuSans-20" transform="translate(2492.720703 0)"/>
     <use xlink:href="#DejaVuSans-66" transform="translate(2524.507812 0)"/>
     <use xlink:href="#DejaVuSans-75" transform="translate(2559.712891 0)"/>
     <use xlink:href="#DejaVuSans-6c" transform="translate(2623.091797 0)"/>
     <use xlink:href="#DejaVuSans-6c" transform="translate(2650.875 0)"/>
     <use xlink:href="#DejaVuSans-2d" transform="translate(2678.658203 0)"/>
     <use xlink:href="#DejaVuSans-63" transform="translate(2714.742188 0)"/>
     <use xlink:href="#DejaVuSans-6f" transform="translate(2769.722656 0)"/>
     <use xlink:href="#DejaVuSans-68" transform="translate(2830.904297 0)"/>
     <use xlink:href="#DejaVuSans-6f" transform="translate(2894.283203 0)"/>
     <use xlink:href="#DejaVuSans-72" transform="translate(2955.464844 0)"/>
     <use xlink:href="#DejaVuSans-74" transform="translate(2996.578125 0)"/>
     <use xlink:href="#DejaVuSans-20" transform="translate(3035.787109 0)"/>
     <use xlink:href="#DejaVuSans-64" transform="translate(3067.574219 0)"/>
     <use xlink:href="#DejaVuSans-65" transform="translate(3131.050781 0)"/>
     <use xlink:href="#DejaVuSans-76" transform="translate(3192.574219 0)"/>
     <use xlink:href="#DejaVuSans-65" transform="translate(3251.753906 0)"/>
     <use xlink:href="#DejaVuSans-6c" transform="translate(3313.277344 0)"/>
     <use xlink:href="#DejaVuSans-6f" transform="translate(3341.060547 0)"/>
     <use xlink:href="#DejaVuSans-70" transform="translate(3402.242188 0)"/>
     <use xlink:href="#DejaVuSans-6d" transform="translate(3465.71875 0)"/>
     <use xlink:href="#DejaVuSans-65" transform="translate(3563.130859 0)"/>
     <use xlink:href="#DejaVuSans-6e" transform="translate(3624.654297 0)"/>
     <use xlink:href="#DejaVuSans-74" transform="translate(3688.033203 0)"/>
    </g>
   </g>
  </g>
 </g>
</svg>
